%TF.GenerationSoftware,KiCad,Pcbnew,9.0.3-9.0.3-0~ubuntu24.04.1*%
%TF.CreationDate,2025-07-24T15:31:40-04:00*%
%TF.ProjectId,pathfinder,70617468-6669-46e6-9465-722e6b696361,rev?*%
%TF.SameCoordinates,Original*%
%TF.FileFunction,Soldermask,Top*%
%TF.FilePolarity,Negative*%
%FSLAX46Y46*%
G04 Gerber Fmt 4.6, Leading zero omitted, Abs format (unit mm)*
G04 Created by KiCad (PCBNEW 9.0.3-9.0.3-0~ubuntu24.04.1) date 2025-07-24 15:31:40*
%MOMM*%
%LPD*%
G01*
G04 APERTURE LIST*
G04 Aperture macros list*
%AMRoundRect*
0 Rectangle with rounded corners*
0 $1 Rounding radius*
0 $2 $3 $4 $5 $6 $7 $8 $9 X,Y pos of 4 corners*
0 Add a 4 corners polygon primitive as box body*
4,1,4,$2,$3,$4,$5,$6,$7,$8,$9,$2,$3,0*
0 Add four circle primitives for the rounded corners*
1,1,$1+$1,$2,$3*
1,1,$1+$1,$4,$5*
1,1,$1+$1,$6,$7*
1,1,$1+$1,$8,$9*
0 Add four rect primitives between the rounded corners*
20,1,$1+$1,$2,$3,$4,$5,0*
20,1,$1+$1,$4,$5,$6,$7,0*
20,1,$1+$1,$6,$7,$8,$9,0*
20,1,$1+$1,$8,$9,$2,$3,0*%
G04 Aperture macros list end*
%ADD10C,2.019000*%
%ADD11RoundRect,0.102000X0.907500X0.907500X-0.907500X0.907500X-0.907500X-0.907500X0.907500X-0.907500X0*%
%ADD12RoundRect,0.102000X-0.907500X-0.907500X0.907500X-0.907500X0.907500X0.907500X-0.907500X0.907500X0*%
%ADD13C,1.400000*%
%ADD14O,1.400000X1.400000*%
%ADD15C,1.700000*%
%ADD16C,4.000000*%
%ADD17C,2.200000*%
%ADD18RoundRect,0.152400X1.063600X0.609600X-1.063600X0.609600X-1.063600X-0.609600X1.063600X-0.609600X0*%
%ADD19C,1.524000*%
%ADD20RoundRect,0.152400X-1.063600X-0.609600X1.063600X-0.609600X1.063600X0.609600X-1.063600X0.609600X0*%
G04 APERTURE END LIST*
D10*
%TO.C,D3*%
X202250000Y-40520000D03*
D11*
X204790000Y-40520000D03*
%TD*%
D10*
%TO.C,D1*%
X165900000Y-40640000D03*
D12*
X163360000Y-40640000D03*
%TD*%
D13*
%TO.C,R2*%
X181650000Y-56660000D03*
D14*
X186730000Y-56660000D03*
%TD*%
D10*
%TO.C,D2*%
X183450000Y-85330000D03*
D11*
X185990000Y-85330000D03*
%TD*%
D15*
%TO.C,  *%
X158420000Y-62000000D03*
D16*
X163500000Y-62000000D03*
D15*
X168580000Y-62000000D03*
D17*
X166040000Y-56920000D03*
X159690000Y-59460000D03*
%TD*%
D15*
%TO.C,  *%
X178960000Y-72330000D03*
D16*
X184040000Y-72330000D03*
D15*
X189120000Y-72330000D03*
D17*
X186580000Y-67250000D03*
X180230000Y-69790000D03*
%TD*%
D13*
%TO.C,R3*%
X186750000Y-59760000D03*
D14*
X181670000Y-59760000D03*
%TD*%
D13*
%TO.C,R1*%
X181650000Y-53510000D03*
D14*
X186730000Y-53510000D03*
%TD*%
D18*
%TO.C,  *%
X175045000Y-32148500D03*
D19*
X175880000Y-32148500D03*
D18*
X175045000Y-34688500D03*
D19*
X175880000Y-34688500D03*
D18*
X175045000Y-37228500D03*
D19*
X175880000Y-37228500D03*
D18*
X175045000Y-39768500D03*
D19*
X175880000Y-39768500D03*
D18*
X175045000Y-42308500D03*
D19*
X175880000Y-42308500D03*
D18*
X175045000Y-44848500D03*
D19*
X175880000Y-44848500D03*
D18*
X175045000Y-47388500D03*
D19*
X175880000Y-47388500D03*
X191120000Y-47388500D03*
D20*
X191955000Y-47388500D03*
D19*
X191120000Y-44848500D03*
D20*
X191955000Y-44848500D03*
D19*
X191120000Y-42308500D03*
D20*
X191955000Y-42308500D03*
D19*
X191120000Y-39768500D03*
D20*
X191955000Y-39768500D03*
D19*
X191120000Y-37228500D03*
D20*
X191955000Y-37228500D03*
D19*
X191120000Y-34688500D03*
D20*
X191955000Y-34688500D03*
D19*
X191120000Y-32148500D03*
D20*
X191955000Y-32148500D03*
%TD*%
D15*
%TO.C,  *%
X199600000Y-61880000D03*
D16*
X204680000Y-61880000D03*
D15*
X209760000Y-61880000D03*
D17*
X207220000Y-56800000D03*
X200870000Y-59340000D03*
%TD*%
M02*
