M48
; DRILL file {KiCad 9.0.3-9.0.3-0~ubuntu24.04.1} date 2025-07-24T15:31:42-0400
; FORMAT={-:-/ absolute / metric / decimal}
; #@! TF.CreationDate,2025-07-24T15:31:42-04:00
; #@! TF.GenerationSoftware,Kicad,Pcbnew,9.0.3-9.0.3-0~ubuntu24.04.1
; #@! TF.FileFunction,Plated,1,2,PTH
FMAT,2
METRIC
; #@! TA.AperFunction,Plated,PTH,ViaDrill
T1C0.300
; #@! TA.AperFunction,Plated,PTH,ComponentDrill
T2C0.700
; #@! TA.AperFunction,Plated,PTH,ComponentDrill
T3C0.889
; #@! TA.AperFunction,Plated,PTH,ComponentDrill
T4C1.210
; #@! TA.AperFunction,Plated,PTH,ComponentDrill
T5C1.500
%
G90
G05
T1
X201.035Y-46.258
T2
X181.65Y-53.51
X181.65Y-56.66
X181.67Y-59.76
X186.73Y-53.51
X186.73Y-56.66
X186.75Y-59.76
T3
X175.88Y-32.148
X175.88Y-34.688
X175.88Y-37.228
X175.88Y-39.768
X175.88Y-42.308
X175.88Y-44.849
X175.88Y-47.389
X191.12Y-32.148
X191.12Y-34.688
X191.12Y-37.228
X191.12Y-39.768
X191.12Y-42.308
X191.12Y-44.849
X191.12Y-47.389
T4
X163.36Y-40.64
X165.9Y-40.64
X183.45Y-85.33
X185.99Y-85.33
X202.25Y-40.52
X204.79Y-40.52
T5
X159.69Y-59.46
X166.04Y-56.92
X180.23Y-69.79
X186.58Y-67.25
X200.87Y-59.34
X207.22Y-56.8
M30
