%TF.GenerationSoftware,KiCad,Pcbnew,9.0.3-9.0.3-0~ubuntu24.04.1*%
%TF.CreationDate,2025-07-24T15:31:39-04:00*%
%TF.ProjectId,pathfinder,70617468-6669-46e6-9465-722e6b696361,rev?*%
%TF.SameCoordinates,Original*%
%TF.FileFunction,Copper,L1,Top*%
%TF.FilePolarity,Positive*%
%FSLAX46Y46*%
G04 Gerber Fmt 4.6, Leading zero omitted, Abs format (unit mm)*
G04 Created by KiCad (PCBNEW 9.0.3-9.0.3-0~ubuntu24.04.1) date 2025-07-24 15:31:39*
%MOMM*%
%LPD*%
G01*
G04 APERTURE LIST*
G04 Aperture macros list*
%AMRoundRect*
0 Rectangle with rounded corners*
0 $1 Rounding radius*
0 $2 $3 $4 $5 $6 $7 $8 $9 X,Y pos of 4 corners*
0 Add a 4 corners polygon primitive as box body*
4,1,4,$2,$3,$4,$5,$6,$7,$8,$9,$2,$3,0*
0 Add four circle primitives for the rounded corners*
1,1,$1+$1,$2,$3*
1,1,$1+$1,$4,$5*
1,1,$1+$1,$6,$7*
1,1,$1+$1,$8,$9*
0 Add four rect primitives between the rounded corners*
20,1,$1+$1,$2,$3,$4,$5,0*
20,1,$1+$1,$4,$5,$6,$7,0*
20,1,$1+$1,$6,$7,$8,$9,0*
20,1,$1+$1,$8,$9,$2,$3,0*%
G04 Aperture macros list end*
%TA.AperFunction,ComponentPad*%
%ADD10C,1.815000*%
%TD*%
%TA.AperFunction,ComponentPad*%
%ADD11R,1.815000X1.815000*%
%TD*%
%TA.AperFunction,ComponentPad*%
%ADD12C,1.400000*%
%TD*%
%TA.AperFunction,ComponentPad*%
%ADD13O,1.400000X1.400000*%
%TD*%
%TA.AperFunction,ComponentPad*%
%ADD14C,2.200000*%
%TD*%
%TA.AperFunction,SMDPad,CuDef*%
%ADD15RoundRect,0.152400X1.063600X0.609600X-1.063600X0.609600X-1.063600X-0.609600X1.063600X-0.609600X0*%
%TD*%
%TA.AperFunction,ComponentPad*%
%ADD16C,1.524000*%
%TD*%
%TA.AperFunction,SMDPad,CuDef*%
%ADD17RoundRect,0.152400X-1.063600X-0.609600X1.063600X-0.609600X1.063600X0.609600X-1.063600X0.609600X0*%
%TD*%
%TA.AperFunction,ViaPad*%
%ADD18C,0.600000*%
%TD*%
%TA.AperFunction,Conductor*%
%ADD19C,0.200000*%
%TD*%
G04 APERTURE END LIST*
D10*
%TO.P,D3,A*%
%TO.N,Net-(D3-PadA)*%
X202250000Y-40520000D03*
D11*
%TO.P,D3,C*%
%TO.N,GND*%
X204790000Y-40520000D03*
%TD*%
D10*
%TO.P,D1,A*%
%TO.N,Net-(D1-PadA)*%
X165900000Y-40640000D03*
D11*
%TO.P,D1,C*%
%TO.N,GND*%
X163360000Y-40640000D03*
%TD*%
D12*
%TO.P,R2,1*%
%TO.N,Net-(D2-PadA)*%
X181650000Y-56660000D03*
D13*
%TO.P,R2,2*%
%TO.N,led1*%
X186730000Y-56660000D03*
%TD*%
D10*
%TO.P,D2,A*%
%TO.N,Net-(D2-PadA)*%
X183450000Y-85330000D03*
D11*
%TO.P,D2,C*%
%TO.N,GND*%
X185990000Y-85330000D03*
%TD*%
D14*
%TO.P,  ,1,1*%
%TO.N,GND*%
X166040000Y-56920000D03*
%TO.P,  ,2,2*%
%TO.N,Net-(U1-GPIO27{slash}ADC1{slash}A1)*%
X159690000Y-59460000D03*
%TD*%
%TO.P,  ,1,1*%
%TO.N,GND*%
X186580000Y-67250000D03*
%TO.P,  ,2,2*%
%TO.N,Net-(U1-GPIO26{slash}ADC0{slash}A0)*%
X180230000Y-69790000D03*
%TD*%
D12*
%TO.P,R3,1*%
%TO.N,Net-(D3-PadA)*%
X186750000Y-59760000D03*
D13*
%TO.P,R3,2*%
%TO.N,led2*%
X181670000Y-59760000D03*
%TD*%
D12*
%TO.P,R1,1*%
%TO.N,Net-(D1-PadA)*%
X181650000Y-53510000D03*
D13*
%TO.P,R1,2*%
%TO.N,led0*%
X186730000Y-53510000D03*
%TD*%
D15*
%TO.P,  ,1,GPIO26/ADC0/A0*%
%TO.N,Net-(U1-GPIO26{slash}ADC0{slash}A0)*%
X175045000Y-32148500D03*
D16*
X175880000Y-32148500D03*
D15*
%TO.P,  ,2,GPIO27/ADC1/A1*%
%TO.N,Net-(U1-GPIO27{slash}ADC1{slash}A1)*%
X175045000Y-34688500D03*
D16*
X175880000Y-34688500D03*
D15*
%TO.P,  ,3,GPIO28/ADC2/A2*%
%TO.N,Net-(U1-GPIO28{slash}ADC2{slash}A2)*%
X175045000Y-37228500D03*
D16*
X175880000Y-37228500D03*
D15*
%TO.P,  ,4,GPIO29/ADC3/A3*%
%TO.N,led0*%
X175045000Y-39768500D03*
D16*
X175880000Y-39768500D03*
D15*
%TO.P,  ,5,GPIO6/SDA*%
%TO.N,led1*%
X175045000Y-42308500D03*
D16*
X175880000Y-42308500D03*
D15*
%TO.P,  ,6,GPIO7/SCL*%
%TO.N,led2*%
X175045000Y-44848500D03*
D16*
X175880000Y-44848500D03*
D15*
%TO.P,  ,7,GPIO0/TX*%
%TO.N,unconnected-(U1-GPIO0{slash}TX-Pad7)*%
X175045000Y-47388500D03*
D16*
X175880000Y-47388500D03*
%TO.P,  ,8,GPIO1/RX*%
%TO.N,unconnected-(U1-GPIO1{slash}RX-Pad8)*%
X191120000Y-47388500D03*
D17*
X191955000Y-47388500D03*
D16*
%TO.P,  ,9,GPIO2/SCK*%
%TO.N,unconnected-(U1-GPIO2{slash}SCK-Pad9)*%
X191120000Y-44848500D03*
D17*
X191955000Y-44848500D03*
D16*
%TO.P,  ,10,GPIO4/MISO*%
%TO.N,unconnected-(U1-GPIO4{slash}MISO-Pad10)*%
X191120000Y-42308500D03*
D17*
X191955000Y-42308500D03*
D16*
%TO.P,  ,11,GPIO3/MOSI*%
%TO.N,unconnected-(U1-GPIO3{slash}MOSI-Pad11)*%
X191120000Y-39768500D03*
D17*
X191955000Y-39768500D03*
D16*
%TO.P,  ,12,3V3*%
%TO.N,unconnected-(U1-3V3-Pad12)*%
X191120000Y-37228500D03*
D17*
X191955000Y-37228500D03*
D16*
%TO.P,  ,13,GND*%
%TO.N,GND*%
X191120000Y-34688500D03*
D17*
X191955000Y-34688500D03*
D16*
%TO.P,  ,14,VBUS*%
%TO.N,unconnected-(U1-VBUS-Pad14)*%
X191120000Y-32148500D03*
D17*
X191955000Y-32148500D03*
%TD*%
D14*
%TO.P,  ,1,1*%
%TO.N,GND*%
X207220000Y-56800000D03*
%TO.P,  ,2,2*%
%TO.N,Net-(U1-GPIO28{slash}ADC2{slash}A2)*%
X200870000Y-59340000D03*
%TD*%
D18*
%TO.N,Net-(U1-GPIO28{slash}ADC2{slash}A2)*%
X201035200Y-46257900D03*
%TD*%
D19*
%TO.N,Net-(D1-PadA)*%
X178770000Y-53510000D02*
X181650000Y-53510000D01*
X165900000Y-40640000D02*
X178770000Y-53510000D01*
%TO.N,GND*%
X198958000Y-34688500D02*
X204790000Y-40520000D01*
X177450000Y-67200000D02*
X177500000Y-67250000D01*
X204790000Y-40520000D02*
X204790000Y-54370000D01*
X191955000Y-34688500D02*
X198958000Y-34688500D01*
X186580000Y-67250000D02*
X199460000Y-54370000D01*
X186580000Y-84740000D02*
X186580000Y-67250000D01*
X177500000Y-67250000D02*
X186580000Y-67250000D01*
X165900000Y-56780000D02*
X166040000Y-56920000D01*
X166040000Y-43320000D02*
X163360000Y-40640000D01*
X204790000Y-54370000D02*
X207220000Y-56800000D01*
X191120000Y-34688500D02*
X191955000Y-34688500D01*
X176320000Y-67200000D02*
X177450000Y-67200000D01*
X185990000Y-85330000D02*
X186580000Y-84740000D01*
X166040000Y-56920000D02*
X176320000Y-67200000D01*
X199460000Y-54370000D02*
X204790000Y-54370000D01*
X166040000Y-56920000D02*
X166040000Y-43320000D01*
%TO.N,led0*%
X175880000Y-39768500D02*
X175045000Y-39768500D01*
%TO.N,led1*%
X175880000Y-42308500D02*
X175045000Y-42308500D01*
%TO.N,led2*%
X175045000Y-44848500D02*
X175880000Y-44848500D01*
%TO.N,Net-(U1-GPIO27{slash}ADC1{slash}A1)*%
X164742000Y-34688500D02*
X175045000Y-34688500D01*
X159690000Y-39740000D02*
X164742000Y-34688500D01*
X159690000Y-59460000D02*
X159690000Y-39740000D01*
X175045000Y-34688500D02*
X175880000Y-34688500D01*
%TO.N,Net-(U1-GPIO26{slash}ADC0{slash}A0)*%
X175880000Y-32148500D02*
X175045000Y-32148500D01*
%TO.N,Net-(U1-GPIO28{slash}ADC2{slash}A2)*%
X175045000Y-37228500D02*
X175880000Y-37228500D01*
X200870000Y-46423100D02*
X201035200Y-46257900D01*
X201035200Y-46257900D02*
X200870000Y-46423100D01*
X184909400Y-46257900D02*
X201035200Y-46257900D01*
X175880000Y-37228500D02*
X184909400Y-46257900D01*
%TO.N,unconnected-(U1-GPIO3{slash}MOSI-Pad11)*%
X191120000Y-39768500D02*
X191955000Y-39768500D01*
%TO.N,unconnected-(U1-VBUS-Pad14)*%
X191955000Y-32148500D02*
X191120000Y-32148500D01*
%TO.N,unconnected-(U1-GPIO1{slash}RX-Pad8)*%
X191955000Y-47388500D02*
X191120000Y-47388500D01*
%TO.N,unconnected-(U1-3V3-Pad12)*%
X191120000Y-37228500D02*
X191955000Y-37228500D01*
%TO.N,unconnected-(U1-GPIO0{slash}TX-Pad7)*%
X175045000Y-47388500D02*
X175880000Y-47388500D01*
%TO.N,unconnected-(U1-GPIO4{slash}MISO-Pad10)*%
X191120000Y-42308500D02*
X191955000Y-42308500D01*
%TO.N,unconnected-(U1-GPIO2{slash}SCK-Pad9)*%
X191955000Y-44848500D02*
X191120000Y-44848500D01*
%TD*%
M02*
