%TF.GenerationSoftware,KiCad,Pcbnew,9.0.3-9.0.3-0~ubuntu24.04.1*%
%TF.CreationDate,2025-07-24T15:31:40-04:00*%
%TF.ProjectId,pathfinder,70617468-6669-46e6-9465-722e6b696361,rev?*%
%TF.SameCoordinates,Original*%
%TF.FileFunction,Copper,L2,Bot*%
%TF.FilePolarity,Positive*%
%FSLAX46Y46*%
G04 Gerber Fmt 4.6, Leading zero omitted, Abs format (unit mm)*
G04 Created by KiCad (PCBNEW 9.0.3-9.0.3-0~ubuntu24.04.1) date 2025-07-24 15:31:40*
%MOMM*%
%LPD*%
G01*
G04 APERTURE LIST*
%TA.AperFunction,ComponentPad*%
%ADD10C,1.815000*%
%TD*%
%TA.AperFunction,ComponentPad*%
%ADD11R,1.815000X1.815000*%
%TD*%
%TA.AperFunction,ComponentPad*%
%ADD12C,1.400000*%
%TD*%
%TA.AperFunction,ComponentPad*%
%ADD13O,1.400000X1.400000*%
%TD*%
%TA.AperFunction,ComponentPad*%
%ADD14C,2.200000*%
%TD*%
%TA.AperFunction,ComponentPad*%
%ADD15C,1.524000*%
%TD*%
%TA.AperFunction,ViaPad*%
%ADD16C,0.600000*%
%TD*%
%TA.AperFunction,Conductor*%
%ADD17C,0.200000*%
%TD*%
G04 APERTURE END LIST*
D10*
%TO.P,D3,A*%
%TO.N,Net-(D3-PadA)*%
X202250000Y-40520000D03*
D11*
%TO.P,D3,C*%
%TO.N,GND*%
X204790000Y-40520000D03*
%TD*%
D10*
%TO.P,D1,A*%
%TO.N,Net-(D1-PadA)*%
X165900000Y-40640000D03*
D11*
%TO.P,D1,C*%
%TO.N,GND*%
X163360000Y-40640000D03*
%TD*%
D12*
%TO.P,R2,1*%
%TO.N,Net-(D2-PadA)*%
X181650000Y-56660000D03*
D13*
%TO.P,R2,2*%
%TO.N,led1*%
X186730000Y-56660000D03*
%TD*%
D10*
%TO.P,D2,A*%
%TO.N,Net-(D2-PadA)*%
X183450000Y-85330000D03*
D11*
%TO.P,D2,C*%
%TO.N,GND*%
X185990000Y-85330000D03*
%TD*%
D14*
%TO.P,  ,1,1*%
%TO.N,GND*%
X166040000Y-56920000D03*
%TO.P,  ,2,2*%
%TO.N,Net-(U1-GPIO27{slash}ADC1{slash}A1)*%
X159690000Y-59460000D03*
%TD*%
%TO.P,  ,1,1*%
%TO.N,GND*%
X186580000Y-67250000D03*
%TO.P,  ,2,2*%
%TO.N,Net-(U1-GPIO26{slash}ADC0{slash}A0)*%
X180230000Y-69790000D03*
%TD*%
D12*
%TO.P,R3,1*%
%TO.N,Net-(D3-PadA)*%
X186750000Y-59760000D03*
D13*
%TO.P,R3,2*%
%TO.N,led2*%
X181670000Y-59760000D03*
%TD*%
D12*
%TO.P,R1,1*%
%TO.N,Net-(D1-PadA)*%
X181650000Y-53510000D03*
D13*
%TO.P,R1,2*%
%TO.N,led0*%
X186730000Y-53510000D03*
%TD*%
D15*
%TO.P,  ,1,GPIO26/ADC0/A0*%
%TO.N,Net-(U1-GPIO26{slash}ADC0{slash}A0)*%
X175880000Y-32148500D03*
%TO.P,  ,2,GPIO27/ADC1/A1*%
%TO.N,Net-(U1-GPIO27{slash}ADC1{slash}A1)*%
X175880000Y-34688500D03*
%TO.P,  ,3,GPIO28/ADC2/A2*%
%TO.N,Net-(U1-GPIO28{slash}ADC2{slash}A2)*%
X175880000Y-37228500D03*
%TO.P,  ,4,GPIO29/ADC3/A3*%
%TO.N,led0*%
X175880000Y-39768500D03*
%TO.P,  ,5,GPIO6/SDA*%
%TO.N,led1*%
X175880000Y-42308500D03*
%TO.P,  ,6,GPIO7/SCL*%
%TO.N,led2*%
X175880000Y-44848500D03*
%TO.P,  ,7,GPIO0/TX*%
%TO.N,unconnected-(U1-GPIO0{slash}TX-Pad7)*%
X175880000Y-47388500D03*
%TO.P,  ,8,GPIO1/RX*%
%TO.N,unconnected-(U1-GPIO1{slash}RX-Pad8)*%
X191120000Y-47388500D03*
%TO.P,  ,9,GPIO2/SCK*%
%TO.N,unconnected-(U1-GPIO2{slash}SCK-Pad9)*%
X191120000Y-44848500D03*
%TO.P,  ,10,GPIO4/MISO*%
%TO.N,unconnected-(U1-GPIO4{slash}MISO-Pad10)*%
X191120000Y-42308500D03*
%TO.P,  ,11,GPIO3/MOSI*%
%TO.N,unconnected-(U1-GPIO3{slash}MOSI-Pad11)*%
X191120000Y-39768500D03*
%TO.P,  ,12,3V3*%
%TO.N,unconnected-(U1-3V3-Pad12)*%
X191120000Y-37228500D03*
%TO.P,  ,13,GND*%
%TO.N,GND*%
X191120000Y-34688500D03*
%TO.P,  ,14,VBUS*%
%TO.N,unconnected-(U1-VBUS-Pad14)*%
X191120000Y-32148500D03*
%TD*%
D14*
%TO.P,  ,1,1*%
%TO.N,GND*%
X207220000Y-56800000D03*
%TO.P,  ,2,2*%
%TO.N,Net-(U1-GPIO28{slash}ADC2{slash}A2)*%
X200870000Y-59340000D03*
%TD*%
D16*
%TO.N,Net-(U1-GPIO28{slash}ADC2{slash}A2)*%
X201035200Y-46257900D03*
%TD*%
D17*
%TO.N,Net-(D2-PadA)*%
X190521700Y-78258300D02*
X190521700Y-65531700D01*
X183450000Y-85330000D02*
X190521700Y-78258300D01*
X190521700Y-65531700D02*
X181650000Y-56660000D01*
%TO.N,Net-(D3-PadA)*%
X202250000Y-44192300D02*
X186750000Y-59692300D01*
X186750000Y-59692300D02*
X186750000Y-59760000D01*
X202250000Y-40520000D02*
X202250000Y-44192300D01*
%TO.N,led0*%
X186730000Y-50618500D02*
X175880000Y-39768500D01*
X186730000Y-53510000D02*
X186730000Y-50618500D01*
%TO.N,led1*%
X186730000Y-56660000D02*
X186730000Y-55658300D01*
X184580200Y-51008700D02*
X184580200Y-53508500D01*
X184580200Y-53508500D02*
X186730000Y-55658300D01*
X175880000Y-42308500D02*
X184580200Y-51008700D01*
%TO.N,led2*%
X175880000Y-44848500D02*
X174771700Y-45956800D01*
X174771700Y-51860000D02*
X181670000Y-58758300D01*
X181670000Y-59760000D02*
X181670000Y-58758300D01*
X174771700Y-45956800D02*
X174771700Y-51860000D01*
%TO.N,Net-(U1-GPIO26{slash}ADC0{slash}A0)*%
X174327600Y-33700900D02*
X175880000Y-32148500D01*
X180230000Y-69790000D02*
X174327600Y-63887600D01*
X174327600Y-63887600D02*
X174327600Y-33700900D01*
%TO.N,Net-(U1-GPIO28{slash}ADC2{slash}A2)*%
X201035200Y-46257900D02*
X200870000Y-46423100D01*
X200870000Y-46423100D02*
X201035200Y-46257900D01*
X200870000Y-46423100D02*
X200870000Y-59340000D01*
X201035200Y-46257900D02*
X200870000Y-46423100D01*
%TD*%
M02*
